<svg xmlns="http://www.w3.org/2000/svg" width="600" height="400"><path d="M337,205L265,220L313,257Z" fill="rgb(166,179,247)" stroke="rgb(166,179,247)" stroke-width="1.51"/><path d="M265,220L268,294L313,257Z" fill="rgb(162,176,247)" stroke="rgb(162,176,247)" stroke-width="1.51"/><path d="M337,205L282,124L265,220Z" fill="rgb(178,189,250)" stroke="rgb(178,189,250)" stroke-width="1.51"/><path d="M313,257L392,256L337,205Z" fill="rgb(156,171,246)" stroke="rgb(156,171,246)" stroke-width="1.51"/><path d="M337,205L427,192L349,141Z" fill="rgb(167,180,248)" stroke="rgb(167,180,248)" stroke-width="1.51"/><path d="M341,330L392,256L313,257Z" fill="rgb(146,160,244)" stroke="rgb(146,160,244)" stroke-width="1.51"/><path d="M349,141L282,124L337,205Z" fill="rgb(180,191,250)" stroke="rgb(180,191,250)" stroke-width="1.51"/><path d="M268,294L285,329L313,257Z" fill="rgb(154,164,246)" stroke="rgb(154,164,246)" stroke-width="1.51"/><path d="M285,329L341,330L313,257Z" fill="rgb(147,156,245)" stroke="rgb(147,156,245)" stroke-width="1.51"/><path d="M265,220L172,259L268,294Z" fill="rgb(170,183,248)" stroke="rgb(170,183,248)" stroke-width="1.51"/><path d="M268,294L195,347L285,329Z" fill="rgb(154,157,247)" stroke="rgb(154,157,247)" stroke-width="1.51"/><path d="M282,124L190,194L265,220Z" fill="rgb(187,197,252)" stroke="rgb(187,197,252)" stroke-width="1.51"/><path d="M392,256L427,192L337,205Z" fill="rgb(155,170,245)" stroke="rgb(155,170,245)" stroke-width="1.51"/><path d="M427,192L402,129L349,141Z" fill="rgb(170,182,248)" stroke="rgb(170,182,248)" stroke-width="1.51"/><path d="M349,141L356,71L282,124Z" fill="rgb(188,198,251)" stroke="rgb(188,198,251)" stroke-width="1.51"/><path d="M190,194L172,259L265,220Z" fill="rgb(181,193,250)" stroke="rgb(181,193,250)" stroke-width="1.51"/><path d="M282,124L177,140L190,194Z" fill="rgb(197,206,254)" stroke="rgb(197,206,254)" stroke-width="1.51"/><path d="M190,194L133,212L172,259Z" fill="rgb(188,198,251)" stroke="rgb(188,198,251)" stroke-width="1.51"/><path d="M402,129L356,71L349,141Z" fill="rgb(181,192,249)" stroke="rgb(181,192,249)" stroke-width="1.51"/><path d="M282,124L202,51L177,140Z" fill="rgb(206,213,254)" stroke="rgb(206,213,254)" stroke-width="1.51"/><path d="M172,259L195,347L268,294Z" fill="rgb(165,171,248)" stroke="rgb(165,171,248)" stroke-width="1.51"/><path d="M285,329L312,428L341,330Z" fill="rgb(134,134,245)" stroke="rgb(134,134,245)" stroke-width="1.51"/><path d="M392,256L463,273L427,192Z" fill="rgb(143,157,244)" stroke="rgb(143,157,244)" stroke-width="1.51"/><path d="M427,192L502,142L402,129Z" fill="rgb(162,170,248)" stroke="rgb(162,170,248)" stroke-width="1.51"/><path d="M431,346L463,273L392,256Z" fill="rgb(131,142,242)" stroke="rgb(131,142,242)" stroke-width="1.51"/><path d="M177,140L133,212L190,194Z" fill="rgb(197,205,252)" stroke="rgb(197,205,252)" stroke-width="1.51"/><path d="M172,259L109,362L195,347Z" fill="rgb(168,167,249)" stroke="rgb(168,167,249)" stroke-width="1.51"/><path d="M401,427L431,346L341,330Z" fill="rgb(118,122,242)" stroke="rgb(118,122,242)" stroke-width="1.51"/><path d="M341,330L431,346L392,256Z" fill="rgb(132,144,243)" stroke="rgb(132,144,243)" stroke-width="1.51"/><path d="M463,273L483,194L427,192Z" fill="rgb(144,154,245)" stroke="rgb(144,154,245)" stroke-width="1.51"/><path d="M402,129L413,38L356,71Z" fill="rgb(184,193,248)" stroke="rgb(184,193,248)" stroke-width="1.51"/><path d="M195,347L260,401L285,329Z" fill="rgb(147,144,247)" stroke="rgb(147,144,247)" stroke-width="1.51"/><path d="M356,71L264,33L282,124Z" fill="rgb(198,206,251)" stroke="rgb(198,206,251)" stroke-width="1.51"/><path d="M177,140L101,137L133,212Z" fill="rgb(204,212,253)" stroke="rgb(204,212,253)" stroke-width="1.51"/><path d="M264,33L202,51L282,124Z" fill="rgb(207,213,253)" stroke="rgb(207,213,253)" stroke-width="1.51"/><path d="M549,280L545,184L483,194Z" fill="rgb(134,137,244)" stroke="rgb(134,137,244)" stroke-width="1.51"/><path d="M431,346L465,337L463,273Z" fill="rgb(120,127,242)" stroke="rgb(120,127,242)" stroke-width="1.51"/><path d="M455,429L465,337L431,346Z" fill="rgb(105,108,242)" stroke="rgb(105,108,242)" stroke-width="1.51"/><path d="M260,401L312,428L285,329Z" fill="rgb(134,128,246)" stroke="rgb(134,128,246)" stroke-width="1.51"/><path d="M133,212L98,256L172,259Z" fill="rgb(186,196,249)" stroke="rgb(186,196,249)" stroke-width="1.51"/><path d="M66,193L98,256L133,212Z" fill="rgb(195,203,250)" stroke="rgb(195,203,250)" stroke-width="1.51"/><path d="M356,71L331,7L264,33Z" fill="rgb(202,208,250)" stroke="rgb(202,208,250)" stroke-width="1.51"/><path d="M497,45L413,38L402,129Z" fill="rgb(179,183,248)" stroke="rgb(179,183,248)" stroke-width="1.51"/><path d="M483,194L502,142L427,192Z" fill="rgb(154,159,247)" stroke="rgb(154,159,247)" stroke-width="1.51"/><path d="M545,184L502,142L483,194Z" fill="rgb(149,149,247)" stroke="rgb(149,149,247)" stroke-width="1.51"/><path d="M399,-4L331,7L356,71Z" fill="rgb(197,203,248)" stroke="rgb(197,203,248)" stroke-width="1.51"/><path d="M264,33L206,-21L202,51Z" fill="rgb(218,223,253)" stroke="rgb(218,223,253)" stroke-width="1.51"/><path d="M120,36L101,137L177,140Z" fill="rgb(216,222,254)" stroke="rgb(216,222,254)" stroke-width="1.51"/><path d="M312,428L401,427L341,330Z" fill="rgb(119,117,243)" stroke="rgb(119,117,243)" stroke-width="1.51"/><path d="M331,7L268,-6L264,33Z" fill="rgb(210,215,250)" stroke="rgb(210,215,250)" stroke-width="1.51"/><path d="M202,51L120,36L177,140Z" fill="rgb(217,222,254)" stroke="rgb(217,222,254)" stroke-width="1.51"/><path d="M195,347L182,416L260,401Z" fill="rgb(146,138,248)" stroke="rgb(146,138,248)" stroke-width="1.51"/><path d="M260,401L255,470L312,428Z" fill="rgb(132,125,246)" stroke="rgb(132,125,246)" stroke-width="1.51"/><path d="M125,397L182,416L195,347Z" fill="rgb(153,142,248)" stroke="rgb(153,142,248)" stroke-width="1.51"/><path d="M101,137L66,193L133,212Z" fill="rgb(203,211,252)" stroke="rgb(203,211,252)" stroke-width="1.51"/><path d="M36,325L109,362L98,256Z" fill="rgb(178,176,248)" stroke="rgb(178,176,248)" stroke-width="1.51"/><path d="M98,256L109,362L172,259Z" fill="rgb(177,182,248)" stroke="rgb(177,182,248)" stroke-width="1.51"/><path d="M288,-97L204,-74L268,-6Z" fill="rgb(217,221,251)" stroke="rgb(217,221,251)" stroke-width="1.51"/><path d="M413,38L399,-4L356,71Z" fill="rgb(191,198,247)" stroke="rgb(191,198,247)" stroke-width="1.51"/><path d="M477,-21L399,-4L413,38Z" fill="rgb(191,193,247)" stroke="rgb(191,193,247)" stroke-width="1.51"/><path d="M549,280L483,194L463,273Z" fill="rgb(130,138,243)" stroke="rgb(130,138,243)" stroke-width="1.51"/><path d="M502,142L497,45L402,129Z" fill="rgb(170,172,249)" stroke="rgb(170,172,249)" stroke-width="1.51"/><path d="M255,470L345,466L312,428Z" fill="rgb(126,121,245)" stroke="rgb(126,121,245)" stroke-width="1.51"/><path d="M312,428L345,466L401,427Z" fill="rgb(117,115,243)" stroke="rgb(117,115,243)" stroke-width="1.51"/><path d="M109,362L125,397L195,347Z" fill="rgb(160,151,249)" stroke="rgb(160,151,249)" stroke-width="1.51"/><path d="M465,337L549,280L463,273Z" fill="rgb(119,125,242)" stroke="rgb(119,125,242)" stroke-width="1.51"/><path d="M572,341L549,280L465,337Z" fill="rgb(105,108,242)" stroke="rgb(105,108,242)" stroke-width="1.51"/><path d="M192,478L255,470L182,416Z" fill="rgb(144,133,248)" stroke="rgb(144,133,248)" stroke-width="1.51"/><path d="M182,416L255,470L260,401Z" fill="rgb(140,130,248)" stroke="rgb(140,130,248)" stroke-width="1.51"/><path d="M401,427L455,429L431,346Z" fill="rgb(101,102,241)" stroke="rgb(101,102,241)" stroke-width="1.51"/><path d="M468,482L455,429L401,427Z" fill="rgb(98,99,241)" stroke="rgb(98,99,241)" stroke-width="1.51"/><path d="M138,-23L120,36L202,51Z" fill="rgb(226,230,253)" stroke="rgb(226,230,253)" stroke-width="1.51"/><path d="M101,137L59,108L66,193Z" fill="rgb(214,220,253)" stroke="rgb(214,220,253)" stroke-width="1.51"/><path d="M204,-74L206,-21L268,-6Z" fill="rgb(221,225,252)" stroke="rgb(221,225,252)" stroke-width="1.51"/><path d="M268,-6L206,-21L264,33Z" fill="rgb(217,222,251)" stroke="rgb(217,222,251)" stroke-width="1.51"/><path d="M531,63L497,45L502,142Z" fill="rgb(168,163,248)" stroke="rgb(168,163,248)" stroke-width="1.51"/><path d="M638,112L545,105L545,184Z" fill="rgb(149,141,249)" stroke="rgb(149,141,249)" stroke-width="1.51"/><path d="M545,184L545,105L502,142Z" fill="rgb(153,150,248)" stroke="rgb(153,150,248)" stroke-width="1.51"/><path d="M64,74L59,108L101,137Z" fill="rgb(221,226,253)" stroke="rgb(221,226,253)" stroke-width="1.51"/><path d="M345,466L384,480L401,427Z" fill="rgb(112,112,243)" stroke="rgb(112,112,243)" stroke-width="1.51"/><path d="M255,470L384,480L345,466Z" fill="rgb(121,118,244)" stroke="rgb(121,118,244)" stroke-width="1.51"/><path d="M545,105L531,63L502,142Z" fill="rgb(162,156,248)" stroke="rgb(162,156,248)" stroke-width="1.51"/><path d="M127,495L192,478L182,416Z" fill="rgb(150,137,249)" stroke="rgb(150,137,249)" stroke-width="1.51"/><path d="M255,470L192,478L384,480Z" fill="rgb(131,125,246)" stroke="rgb(131,125,246)" stroke-width="1.51"/><path d="M120,36L64,74L101,137Z" fill="rgb(223,227,253)" stroke="rgb(223,227,253)" stroke-width="1.51"/><path d="M-40,187L29,283L66,193Z" fill="rgb(203,209,249)" stroke="rgb(203,209,249)" stroke-width="1.51"/><path d="M66,193L29,283L98,256Z" fill="rgb(193,201,248)" stroke="rgb(193,201,248)" stroke-width="1.51"/><path d="M109,362L65,415L125,397Z" fill="rgb(160,145,248)" stroke="rgb(160,145,248)" stroke-width="1.51"/><path d="M125,397L127,495L182,416Z" fill="rgb(153,139,249)" stroke="rgb(153,139,249)" stroke-width="1.51"/><path d="M-3,340L29,283L-47,257Z" fill="rgb(190,190,247)" stroke="rgb(190,190,247)" stroke-width="1.51"/><path d="M29,283L36,325L98,256Z" fill="rgb(185,188,247)" stroke="rgb(185,188,247)" stroke-width="1.51"/><path d="M206,-21L138,-23L202,51Z" fill="rgb(226,230,253)" stroke="rgb(226,230,253)" stroke-width="1.51"/><path d="M120,36L62,2L64,74Z" fill="rgb(231,234,252)" stroke="rgb(231,234,252)" stroke-width="1.51"/><path d="M549,280L613,218L545,184Z" fill="rgb(125,124,244)" stroke="rgb(125,124,244)" stroke-width="1.51"/><path d="M563,412L572,341L465,337Z" fill="rgb(89,90,241)" stroke="rgb(89,90,241)" stroke-width="1.51"/><path d="M288,-97L268,-6L331,7Z" fill="rgb(211,216,250)" stroke="rgb(211,216,250)" stroke-width="1.51"/><path d="M206,-21L204,-74L138,-23Z" fill="rgb(226,230,253)" stroke="rgb(226,230,253)" stroke-width="1.51"/><path d="M497,45L477,-21L413,38Z" fill="rgb(185,182,247)" stroke="rgb(185,182,247)" stroke-width="1.51"/><path d="M529,-14L477,-21L497,45Z" fill="rgb(183,174,247)" stroke="rgb(183,174,247)" stroke-width="1.51"/><path d="M36,325L65,415L109,362Z" fill="rgb(169,157,248)" stroke="rgb(169,157,248)" stroke-width="1.51"/><path d="M455,429L563,412L465,337Z" fill="rgb(87,88,241)" stroke="rgb(87,88,241)" stroke-width="1.51"/><path d="M384,480L468,482L401,427Z" fill="rgb(103,105,241)" stroke="rgb(103,105,241)" stroke-width="1.51"/><path d="M610,496L468,482L384,480Z" fill="rgb(86,88,241)" stroke="rgb(86,88,241)" stroke-width="1.51"/><path d="M613,276L613,218L549,280Z" fill="rgb(111,113,242)" stroke="rgb(111,113,242)" stroke-width="1.51"/><path d="M610,38L529,-14L531,63Z" fill="rgb(171,157,248)" stroke="rgb(171,157,248)" stroke-width="1.51"/><path d="M406,-73L331,7L399,-4Z" fill="rgb(198,204,247)" stroke="rgb(198,204,247)" stroke-width="1.51"/><path d="M477,-21L406,-73L399,-4Z" fill="rgb(192,194,247)" stroke="rgb(192,194,247)" stroke-width="1.51"/><path d="M572,341L613,276L549,280Z" fill="rgb(101,103,241)" stroke="rgb(101,103,241)" stroke-width="1.51"/><path d="M351,-111L288,-97L331,7Z" fill="rgb(206,211,249)" stroke="rgb(206,211,249)" stroke-width="1.51"/><path d="M572,341L622,343L613,276Z" fill="rgb(88,89,241)" stroke="rgb(88,89,241)" stroke-width="1.51"/><path d="M545,470L563,412L455,429Z" fill="rgb(76,79,241)" stroke="rgb(76,79,241)" stroke-width="1.51"/><path d="M123,-108L62,2L138,-23Z" fill="rgb(234,236,252)" stroke="rgb(234,236,252)" stroke-width="1.51"/><path d="M138,-23L62,2L120,36Z" fill="rgb(233,236,252)" stroke="rgb(233,236,252)" stroke-width="1.51"/><path d="M-31,32L-20,142L59,108Z" fill="rgb(230,233,252)" stroke="rgb(230,233,252)" stroke-width="1.51"/><path d="M192,478L127,495L384,480Z" fill="rgb(140,130,248)" stroke="rgb(140,130,248)" stroke-width="1.51"/><path d="M72,478L127,495L125,397Z" fill="rgb(157,141,248)" stroke="rgb(157,141,248)" stroke-width="1.51"/><path d="M531,63L529,-14L497,45Z" fill="rgb(176,166,247)" stroke="rgb(176,166,247)" stroke-width="1.51"/><path d="M477,-21L469,-78L406,-73Z" fill="rgb(189,188,247)" stroke="rgb(189,188,247)" stroke-width="1.51"/><path d="M610,38L531,63L545,105Z" fill="rgb(164,151,248)" stroke="rgb(164,151,248)" stroke-width="1.51"/><path d="M36,325L-3,340L65,415Z" fill="rgb(175,162,248)" stroke="rgb(175,162,248)" stroke-width="1.51"/><path d="M65,415L72,478L125,397Z" fill="rgb(160,143,248)" stroke="rgb(160,143,248)" stroke-width="1.51"/><path d="M29,283L-3,340L36,325Z" fill="rgb(184,180,248)" stroke="rgb(184,180,248)" stroke-width="1.51"/><path d="M-20,142L66,193L59,108Z" fill="rgb(217,223,253)" stroke="rgb(217,223,253)" stroke-width="1.51"/><path d="M-31,32L59,108L64,74Z" fill="rgb(231,234,252)" stroke="rgb(231,234,252)" stroke-width="1.51"/><path d="M406,-73L351,-111L331,7Z" fill="rgb(201,206,248)" stroke="rgb(201,206,248)" stroke-width="1.51"/><path d="M469,-78L351,-111L406,-73Z" fill="rgb(194,199,247)" stroke="rgb(194,199,247)" stroke-width="1.51"/><path d="M536,-67L469,-78L477,-21Z" fill="rgb(184,176,247)" stroke="rgb(184,176,247)" stroke-width="1.51"/><path d="M563,412L622,343L572,341Z" fill="rgb(73,76,241)" stroke="rgb(73,76,241)" stroke-width="1.51"/><path d="M683,120L638,112L613,218Z" fill="rgb(141,131,248)" stroke="rgb(141,131,248)" stroke-width="1.51"/><path d="M-20,142L-40,187L66,193Z" fill="rgb(215,220,251)" stroke="rgb(215,220,251)" stroke-width="1.51"/><path d="M-5,465L72,478L65,415Z" fill="rgb(165,146,248)" stroke="rgb(165,146,248)" stroke-width="1.51"/><path d="M563,412L605,434L622,343Z" fill="rgb(50,61,240)" stroke="rgb(50,61,240)" stroke-width="1.51"/><path d="M468,482L545,470L455,429Z" fill="rgb(86,87,241)" stroke="rgb(86,87,241)" stroke-width="1.51"/><path d="M-40,187L-47,257L29,283Z" fill="rgb(200,206,247)" stroke="rgb(200,206,247)" stroke-width="1.51"/><path d="M683,120L613,218L715,219Z" fill="rgb(131,124,246)" stroke="rgb(131,124,246)" stroke-width="1.51"/><path d="M613,218L638,112L545,184Z" fill="rgb(136,127,247)" stroke="rgb(136,127,247)" stroke-width="1.51"/><path d="M638,112L610,38L545,105Z" fill="rgb(155,140,248)" stroke="rgb(155,140,248)" stroke-width="1.51"/><path d="M529,-14L536,-67L477,-21Z" fill="rgb(182,171,247)" stroke="rgb(182,171,247)" stroke-width="1.51"/><path d="M-85,323L-8,407L-3,340Z" fill="rgb(179,166,247)" stroke="rgb(179,166,247)" stroke-width="1.51"/><path d="M-3,340L-8,407L65,415Z" fill="rgb(171,152,247)" stroke="rgb(171,152,247)" stroke-width="1.51"/><path d="M545,470L605,434L563,412Z" fill="rgb(59,66,241)" stroke="rgb(59,66,241)" stroke-width="1.51"/><path d="M469,-78L605,-90L351,-111Z" fill="rgb(186,182,247)" stroke="rgb(186,182,247)" stroke-width="1.51"/><path d="M622,7L536,-67L529,-14Z" fill="rgb(175,159,247)" stroke="rgb(175,159,247)" stroke-width="1.51"/><path d="M62,2L-31,32L64,74Z" fill="rgb(236,238,251)" stroke="rgb(236,238,251)" stroke-width="1.51"/><path d="M204,-74L123,-108L138,-23Z" fill="rgb(229,232,252)" stroke="rgb(229,232,252)" stroke-width="1.51"/><path d="M288,-97L123,-108L204,-74Z" fill="rgb(223,228,253)" stroke="rgb(223,228,253)" stroke-width="1.51"/><path d="M351,-111L123,-108L288,-97Z" fill="rgb(217,221,251)" stroke="rgb(217,221,251)" stroke-width="1.51"/><path d="M-116,215L-82,269L-47,257Z" fill="rgb(199,205,248)" stroke="rgb(199,205,248)" stroke-width="1.51"/><path d="M-20,142L-90,127L-40,187Z" fill="rgb(221,225,252)" stroke="rgb(221,225,252)" stroke-width="1.51"/><path d="M-24,-30L-31,32L62,2Z" fill="rgb(244,245,250)" stroke="rgb(244,245,250)" stroke-width="1.51"/><path d="M610,38L622,7L529,-14Z" fill="rgb(170,151,247)" stroke="rgb(170,151,247)" stroke-width="1.51"/><path d="M678,71L622,7L610,38Z" fill="rgb(163,145,248)" stroke="rgb(163,145,248)" stroke-width="1.51"/><path d="M-47,257L-85,323L-3,340Z" fill="rgb(188,185,247)" stroke="rgb(188,185,247)" stroke-width="1.51"/><path d="M-116,215L-47,257L-40,187Z" fill="rgb(206,211,249)" stroke="rgb(206,211,249)" stroke-width="1.51"/><path d="M-8,407L-5,465L65,415Z" fill="rgb(168,148,247)" stroke="rgb(168,148,247)" stroke-width="1.51"/><path d="M72,478L-71,505L127,495Z" fill="rgb(165,146,248)" stroke="rgb(165,146,248)" stroke-width="1.51"/><path d="M-97,406L-5,465L-8,407Z" fill="rgb(170,149,247)" stroke="rgb(170,149,247)" stroke-width="1.51"/><path d="M638,112L678,71L610,38Z" fill="rgb(157,141,248)" stroke="rgb(157,141,248)" stroke-width="1.51"/><path d="M715,219L613,218L613,276Z" fill="rgb(116,114,243)" stroke="rgb(116,114,243)" stroke-width="1.51"/><path d="M687,337L613,276L622,343Z" fill="rgb(89,90,241)" stroke="rgb(89,90,241)" stroke-width="1.51"/><path d="M-82,269L-85,323L-47,257Z" fill="rgb(192,195,247)" stroke="rgb(192,195,247)" stroke-width="1.51"/><path d="M707,425L687,337L622,343Z" fill="rgb(66,71,241)" stroke="rgb(66,71,241)" stroke-width="1.51"/><path d="M-31,32L-90,127L-20,142Z" fill="rgb(229,233,252)" stroke="rgb(229,233,252)" stroke-width="1.51"/><path d="M-82,269L-116,215L-85,323Z" fill="rgb(194,200,247)" stroke="rgb(194,200,247)" stroke-width="1.51"/><path d="M683,120L678,71L638,112Z" fill="rgb(152,138,249)" stroke="rgb(152,138,249)" stroke-width="1.51"/><path d="M-22,-64L-24,-30L62,2Z" fill="rgb(244,244,250)" stroke="rgb(244,244,250)" stroke-width="1.51"/><path d="M-31,32L-110,65L-90,127Z" fill="rgb(233,236,252)" stroke="rgb(233,236,252)" stroke-width="1.51"/><path d="M714,282L715,219L613,276Z" fill="rgb(109,111,242)" stroke="rgb(109,111,242)" stroke-width="1.51"/><path d="M683,120L688,-3L678,71Z" fill="rgb(159,142,248)" stroke="rgb(159,142,248)" stroke-width="1.51"/><path d="M127,495L610,496L384,480Z" fill="rgb(112,113,243)" stroke="rgb(112,113,243)" stroke-width="1.51"/><path d="M468,482L610,496L545,470Z" fill="rgb(70,74,241)" stroke="rgb(70,74,241)" stroke-width="1.51"/><path d="M545,470L610,496L605,434Z" fill="rgb(52,62,240)" stroke="rgb(52,62,240)" stroke-width="1.51"/><path d="M605,434L707,425L622,343Z" fill="rgb(45,58,240)" stroke="rgb(45,58,240)" stroke-width="1.51"/><path d="M707,425L714,282L687,337Z" fill="rgb(76,78,241)" stroke="rgb(76,78,241)" stroke-width="1.51"/><path d="M687,337L714,282L613,276Z" fill="rgb(96,97,241)" stroke="rgb(96,97,241)" stroke-width="1.51"/><path d="M-90,127L-116,215L-40,187Z" fill="rgb(215,220,251)" stroke="rgb(215,220,251)" stroke-width="1.51"/><path d="M23,-111L-22,-64L62,2Z" fill="rgb(242,243,251)" stroke="rgb(242,243,251)" stroke-width="1.51"/><path d="M-101,-3L-110,65L-31,32Z" fill="rgb(240,241,251)" stroke="rgb(240,241,251)" stroke-width="1.51"/><path d="M688,-3L605,-90L622,7Z" fill="rgb(170,149,247)" stroke="rgb(170,149,247)" stroke-width="1.51"/><path d="M622,7L605,-90L536,-67Z" fill="rgb(172,152,247)" stroke="rgb(172,152,247)" stroke-width="1.51"/><path d="M536,-67L605,-90L469,-78Z" fill="rgb(179,165,247)" stroke="rgb(179,165,247)" stroke-width="1.51"/><path d="M123,-108L23,-111L62,2Z" fill="rgb(238,239,251)" stroke="rgb(238,239,251)" stroke-width="1.51"/><path d="M351,-111L23,-111L123,-108Z" fill="rgb(228,231,252)" stroke="rgb(228,231,252)" stroke-width="1.51"/><path d="M-116,215L-97,406L-85,323Z" fill="rgb(187,182,247)" stroke="rgb(187,182,247)" stroke-width="1.51"/><path d="M-85,323L-97,406L-8,407Z" fill="rgb(175,157,248)" stroke="rgb(175,157,248)" stroke-width="1.51"/><path d="M-101,-3L-31,32L-24,-30Z" fill="rgb(244,245,250)" stroke="rgb(244,245,250)" stroke-width="1.51"/><path d="M-90,127L-110,65L-116,215Z" fill="rgb(224,228,253)" stroke="rgb(224,228,253)" stroke-width="1.51"/><path d="M678,71L688,-3L622,7Z" fill="rgb(166,146,248)" stroke="rgb(166,146,248)" stroke-width="1.51"/><path d="M715,219L688,-3L683,120Z" fill="rgb(150,137,249)" stroke="rgb(150,137,249)" stroke-width="1.51"/><path d="M714,478L707,425L605,434Z" fill="rgb(45,58,240)" stroke="rgb(45,58,240)" stroke-width="1.51"/><path d="M-75,-112L-101,-3L-22,-64Z" fill="rgb(244,245,250)" stroke="rgb(244,245,250)" stroke-width="1.51"/><path d="M-22,-64L-101,-3L-24,-30Z" fill="rgb(244,245,250)" stroke="rgb(244,245,250)" stroke-width="1.51"/><path d="M127,495L-71,505L610,496Z" fill="rgb(142,132,248)" stroke="rgb(142,132,248)" stroke-width="1.51"/><path d="M-5,465L-71,505L72,478Z" fill="rgb(170,149,247)" stroke="rgb(170,149,247)" stroke-width="1.51"/><path d="M-97,406L-71,505L-5,465Z" fill="rgb(170,149,247)" stroke="rgb(170,149,247)" stroke-width="1.51"/><path d="M610,496L714,478L605,434Z" fill="rgb(45,58,240)" stroke="rgb(45,58,240)" stroke-width="1.51"/><path d="M707,425L714,478L714,282Z" fill="rgb(49,60,240)" stroke="rgb(49,60,240)" stroke-width="1.51"/><path d="M714,282L714,478L715,219Z" fill="rgb(86,87,241)" stroke="rgb(86,87,241)" stroke-width="1.51"/><path d="M688,-3L705,-69L605,-90Z" fill="rgb(170,149,247)" stroke="rgb(170,149,247)" stroke-width="1.51"/><path d="M715,219L705,-69L688,-3Z" fill="rgb(162,143,248)" stroke="rgb(162,143,248)" stroke-width="1.51"/><path d="M23,-111L-75,-112L-22,-64Z" fill="rgb(244,245,250)" stroke="rgb(244,245,250)" stroke-width="1.51"/><path d="M351,-111L-75,-112L23,-111Z" fill="rgb(234,237,252)" stroke="rgb(234,237,252)" stroke-width="1.51"/></svg>